<svg xmlns="http://www.w3.org/2000/svg" viewBox="0 0 100 100" width="100" height="100">
  <rect width="100" height="100" rx="24" fill="#1c2e27"/>
  <g transform="translate(50 51)">
    <g fill="#f5f0e6">
      <g transform="rotate(0)"><path d="M0 0 C -9 -11, -8 -28, 0 -38 C 8 -28, 9 -11, 0 0 Z"/></g>
      <g transform="rotate(72)"><path d="M0 0 C -9 -11, -8 -28, 0 -38 C 8 -28, 9 -11, 0 0 Z"/></g>
      <g transform="rotate(144)"><path d="M0 0 C -9 -11, -8 -28, 0 -38 C 8 -28, 9 -11, 0 0 Z"/></g>
      <g transform="rotate(216)"><path d="M0 0 C -9 -11, -8 -28, 0 -38 C 8 -28, 9 -11, 0 0 Z"/></g>
      <g transform="rotate(288)"><path d="M0 0 C -9 -11, -8 -28, 0 -38 C 8 -28, 9 -11, 0 0 Z"/></g>
    </g>
    <circle r="7" fill="#be9f66"/>
  </g>
</svg>
